<mxfile host="app.diagrams.net" modified="2023-05-29T10:53:17.870Z" agent="Mozilla/5.0 (Windows NT 10.0; Win64; x64) AppleWebKit/537.36 (KHTML, like Gecko) Chrome/113.0.0.0 Safari/537.36" version="21.3.5" etag="hYYzCA6fbCy8dmMmHCdh" type="github">
  <diagram name="Page-1" id="EKDSjg7fB1oq83RqHO87">
    <mxGraphModel>
      <root>
        <mxCell id="0" />
        <mxCell id="1" parent="0" />
      </root>
    </mxGraphModel>
  </diagram>
</mxfile>
